<?xml version="1.0" encoding="UTF-8" standalone="no"?>
<!-- Created with Inkscape (http://www.inkscape.org/) -->

<svg
   width="512"
   height="512"
   viewBox="0 0 512 512"
   version="1.1"
   id="svg1"
   xmlns="http://www.w3.org/2000/svg"
   xmlns:svg="http://www.w3.org/2000/svg">
  <defs
     id="defs1">
    <linearGradient
       id="linearGradient2">
      <stop
         style="stop-color:#cf1b1e;stop-opacity:1;"
         offset="0"
         id="stop2" />
      <stop
         style="stop-color:#cf1b1e;stop-opacity:0;"
         offset="1"
         id="stop3" />
    </linearGradient>
  </defs>
  <g
     id="layer1">
    <circle
       style="display:inline;fill:#f0f8ff;fill-opacity:1;stroke-width:9.39544;stroke-linecap:round;stroke-linejoin:round"
       id="circle6"
       cx="256"
       cy="255.5"
       r="255" />
    <path
       id="circle4"
       style="display:inline;fill:#bf616a;fill-opacity:1;stroke-width:9.39544;stroke-linecap:round;stroke-linejoin:round"
       d="M 118.18164,40.955078 A 255,255 0 0 0 1,255.5 255,255 0 0 0 118.18164,470.04492 Z M 384.19531,342.60156 c -5.46782,0 -9.87109,4.40328 -9.87109,9.8711 v 107.15039 c 0,5.46782 4.40327,9.86914 9.87109,9.86914 h 10.37305 A 255,255 0 0 0 494.97852,342.60156 Z" />
    <path
       id="circle7"
       style="fill:#2e3440;fill-opacity:1;stroke-width:9.4323;stroke-linecap:round;stroke-linejoin:round"
       d="M 256,0 A 256,256 0 0 0 1.8398438,230.26562 L 9.1796875,204.45117 109.90234,252.58594 v 33.1875 L 12.113281,332.79688 A 256,256 0 0 0 256,512 256,256 0 0 0 470.76562,395.19922 h -85.71679 v -31.99024 h 103.3457 A 256,256 0 0 0 512,256 256,256 0 0 0 256,0 Z m 214.76562,395.19922 a 256,256 0 0 0 1.8418,-3.07813 256,256 0 0 1 -1.8418,3.07813 z M 12.113281,332.79688 A 256,256 0 0 1 8.625,320.10547 256,256 0 0 0 12.113281,332.79688 Z M 148.7207,160.80078 h 86.82032 v 123.17969 c 0,8.96936 -1.05008,17.43935 -3.14844,25.41211 -1.9235,7.97276 -5.24548,14.94816 -9.9668,20.92773 -4.54645,5.97957 -10.49166,10.76381 -17.83594,14.35157 -7.34427,3.38841 -16.26208,5.08203 -26.7539,5.08203 -11.01641,0 -20.19675,-1.5941 -27.54102,-4.78321 -7.34427,-3.1891 -13.552,-7.07582 -18.62304,-11.66015 L 144,304.01172 c 4.37159,3.1891 9.17987,6.27779 14.42578,9.26758 5.42077,2.98978 10.92976,4.48437 16.52539,4.48437 8.39346,0 15.12427,-2.49163 20.19531,-7.47461 5.24591,-5.18229 7.86916,-14.64933 7.86914,-28.40234 V 191.29688 H 148.7207 Z m 109.11524,0 h 29.90234 c -0.17486,11.75982 -0.35053,23.91751 -0.52539,36.47461 l -0.52344,37.67188 c -0.17486,12.35778 -0.35052,24.51545 -0.52539,36.47461 -0.17482,11.75981 -0.26172,22.8229 -0.26172,33.1875 1.57378,-6.37821 3.3226,-13.35557 5.2461,-20.92969 2.09836,-7.57413 4.02089,-15.04707 5.76953,-22.42188 1.9235,-7.3748 3.67232,-14.15314 5.24609,-20.33203 1.57378,-6.17889 2.79756,-11.06069 3.67188,-14.64844 h 23.60742 c 0.69945,3.78707 1.74757,8.46986 3.14648,14.05078 1.39891,5.58094 2.88522,11.76027 4.45899,18.53711 1.74863,6.77685 3.58431,14.05273 5.50781,21.82618 2.09836,7.77344 4.1097,15.74587 6.0332,23.91797 0,-10.3646 -0.0868,-21.42769 -0.26172,-33.1875 -0.17486,-11.95915 -0.35052,-24.11683 -0.52539,-36.47461 -0.17486,-12.35778 -0.34857,-24.81595 -0.52343,-37.37305 -0.17488,-12.75642 -0.26367,-25.01362 -0.26368,-36.77344 h 29.90235 c -0.52459,15.14825 -1.04963,30.79461 -1.57422,46.93945 -0.52459,15.94553 -1.13648,31.89042 -1.83594,47.83594 -0.69945,15.74621 -1.57386,31.29306 -2.62304,46.64063 -0.87432,15.34756 -1.92244,29.89737 -3.14649,43.65039 h -26.7539 c -3.847,-12.5571 -7.69402,-26.01036 -11.54102,-40.36133 -3.847,-14.55029 -7.69402,-28.40354 -11.54102,-41.55859 -3.847,12.55709 -7.86968,26.21132 -12.0664,40.96093 -4.19673,14.74961 -8.04375,28.40189 -11.54102,40.95899 h -26.7539 c -1.39891,-13.75302 -2.6227,-28.30283 -3.67188,-43.65039 -1.04918,-15.54689 -2.01046,-31.19325 -2.88476,-46.93946 -0.69946,-15.94552 -1.31135,-31.89041 -1.83594,-47.83593 -0.52459,-16.14485 -0.96278,-31.6917 -1.3125,-46.64063 z M 1.3359375,237.33008 A 256,256 0 0 0 0,256 256,256 0 0 0 4.2597656,300.03516 L 73.705078,269.33008 Z" />
  </g>
</svg>
